{
	"asset":{
		"generator":"Khronos glTF Blender I/O v4.2.57",
		"version":"2.0"
	},
	"extensionsUsed":[
		"KHR_materials_specular",
		"KHR_materials_ior"
	],
	"scene":0,
	"scenes":[
		{
			"name":"Scene",
			"nodes":[
				0,
				1
			]
		}
	],
	"nodes":[
		{
			"mesh":0,
			"name":"Cube",
			"scale":[
				2.6113040447235107,
				1.998684048652649,
				2.6113040447235107
			],
			"translation":[
				-3.954789161682129,
				0,
				43.21772766113281
			]
		},
		{
			"mesh":1,
			"name":"Cube.001",
			"scale":[
				2.6113040447235107,
				1.998684048652649,
				2.6113040447235107
			],
			"translation":[
				-3.954789161682129,
				0,
				43.21772766113281
			]
		}
	],
	"materials":[
		{
			"doubleSided":true,
			"extensions":{
				"KHR_materials_specular":{
					"specularFactor":0
				},
				"KHR_materials_ior":{
					"ior":1.4500000476837158
				}
			},
			"name":"Material.005",
			"pbrMetallicRoughness":{
				"baseColorTexture":{
					"index":0
				},
				"metallicFactor":0
			}
		},
		{
			"doubleSided":true,
			"extensions":{
				"KHR_materials_specular":{
					"specularFactor":0
				},
				"KHR_materials_ior":{
					"ior":1.4500000476837158
				}
			},
			"name":"Material.006",
			"pbrMetallicRoughness":{
				"baseColorTexture":{
					"index":1
				},
				"metallicFactor":0
			}
		}
	],
	"meshes":[
		{
			"name":"Cube.004",
			"primitives":[
				{
					"attributes":{
						"POSITION":0,
						"NORMAL":1,
						"TEXCOORD_0":2
					},
					"indices":3,
					"material":0
				}
			]
		},
		{
			"name":"Cube.005",
			"primitives":[
				{
					"attributes":{
						"POSITION":4,
						"NORMAL":5,
						"TEXCOORD_0":6
					},
					"indices":7,
					"material":1
				}
			]
		}
	],
	"textures":[
		{
			"sampler":0,
			"source":0
		},
		{
			"sampler":0,
			"source":0
		}
	],
	"images":[
		{
			"mimeType":"image/png",
			"name":"DIVIDER",
			"uri":"DIVIDER.png"
		}
	],
	"accessors":[
		{
			"bufferView":0,
			"componentType":5126,
			"count":207,
			"max":[
				6.103767395019531,
				6.2523417472839355,
				3.1402127742767334
			],
			"min":[
				-0.09623265266418457,
				-0.00578618049621582,
				2.9207184314727783
			],
			"type":"VEC3"
		},
		{
			"bufferView":1,
			"componentType":5126,
			"count":207,
			"type":"VEC3"
		},
		{
			"bufferView":2,
			"componentType":5126,
			"count":207,
			"type":"VEC2"
		},
		{
			"bufferView":3,
			"componentType":5123,
			"count":372,
			"type":"SCALAR"
		},
		{
			"bufferView":4,
			"componentType":5126,
			"count":211,
			"max":[
				0.10974699258804321,
				6.2523417472839355,
				3.1296498775482178
			],
			"min":[
				-0.10974699258804321,
				-0.0057860612869262695,
				-3.07034969329834
			],
			"type":"VEC3"
		},
		{
			"bufferView":5,
			"componentType":5126,
			"count":211,
			"type":"VEC3"
		},
		{
			"bufferView":6,
			"componentType":5126,
			"count":211,
			"type":"VEC2"
		},
		{
			"bufferView":7,
			"componentType":5123,
			"count":372,
			"type":"SCALAR"
		}
	],
	"bufferViews":[
		{
			"buffer":0,
			"byteLength":2484,
			"byteOffset":0,
			"target":34962
		},
		{
			"buffer":0,
			"byteLength":2484,
			"byteOffset":2484,
			"target":34962
		},
		{
			"buffer":0,
			"byteLength":1656,
			"byteOffset":4968,
			"target":34962
		},
		{
			"buffer":0,
			"byteLength":744,
			"byteOffset":6624,
			"target":34963
		},
		{
			"buffer":0,
			"byteLength":2532,
			"byteOffset":7368,
			"target":34962
		},
		{
			"buffer":0,
			"byteLength":2532,
			"byteOffset":9900,
			"target":34962
		},
		{
			"buffer":0,
			"byteLength":1688,
			"byteOffset":12432,
			"target":34962
		},
		{
			"buffer":0,
			"byteLength":744,
			"byteOffset":14120,
			"target":34963
		}
	],
	"samplers":[
		{
			"magFilter":9729,
			"minFilter":9987
		}
	],
	"buffers":[
		{
			"byteLength":14864,
			"uri":"DIVIDERC.bin"
		}
	]
}
