{
	"asset":{
		"generator":"Khronos glTF Blender I/O v4.2.57",
		"version":"2.0"
	},
	"extensionsUsed":[
		"KHR_materials_specular",
		"KHR_materials_ior"
	],
	"scene":0,
	"scenes":[
		{
			"name":"Scene",
			"nodes":[
				0
			]
		}
	],
	"nodes":[
		{
			"mesh":0,
			"name":"Cube.002",
			"scale":[
				2.6363604068756104,
				2.005397081375122,
				2.6527934074401855
			],
			"translation":[
				-0.1126861572265625,
				0,
				21.487625122070312
			]
		}
	],
	"materials":[
		{
			"doubleSided":true,
			"extensions":{
				"KHR_materials_specular":{
					"specularFactor":0
				},
				"KHR_materials_ior":{
					"ior":1.4500000476837158
				}
			},
			"name":"Material.007",
			"pbrMetallicRoughness":{
				"baseColorTexture":{
					"index":0
				},
				"metallicFactor":0
			}
		}
	],
	"meshes":[
		{
			"name":"Cube.006",
			"primitives":[
				{
					"attributes":{
						"POSITION":0,
						"NORMAL":1,
						"TEXCOORD_0":2
					},
					"indices":3,
					"material":0
				}
			]
		}
	],
	"textures":[
		{
			"sampler":0,
			"source":0
		}
	],
	"images":[
		{
			"mimeType":"image/png",
			"name":"DIVIDER",
			"uri":"DIVIDER.png"
		}
	],
	"accessors":[
		{
			"bufferView":0,
			"componentType":5126,
			"count":211,
			"max":[
				0.10974699258804321,
				6.2523417472839355,
				3.1296498775482178
			],
			"min":[
				-0.10974699258804321,
				-0.0057860612869262695,
				-3.07034969329834
			],
			"type":"VEC3"
		},
		{
			"bufferView":1,
			"componentType":5126,
			"count":211,
			"type":"VEC3"
		},
		{
			"bufferView":2,
			"componentType":5126,
			"count":211,
			"type":"VEC2"
		},
		{
			"bufferView":3,
			"componentType":5123,
			"count":372,
			"type":"SCALAR"
		}
	],
	"bufferViews":[
		{
			"buffer":0,
			"byteLength":2532,
			"byteOffset":0,
			"target":34962
		},
		{
			"buffer":0,
			"byteLength":2532,
			"byteOffset":2532,
			"target":34962
		},
		{
			"buffer":0,
			"byteLength":1688,
			"byteOffset":5064,
			"target":34962
		},
		{
			"buffer":0,
			"byteLength":744,
			"byteOffset":6752,
			"target":34963
		}
	],
	"samplers":[
		{
			"magFilter":9729,
			"minFilter":9987
		}
	],
	"buffers":[
		{
			"byteLength":7496,
			"uri":"DIVIDER.bin"
		}
	]
}
