{
	"asset":{
		"generator":"Khronos glTF Blender I/O v4.2.57",
		"version":"2.0"
	},
	"extensionsUsed":[
		"KHR_materials_clearcoat"
	],
	"scene":0,
	"scenes":[
		{
			"name":"Scene",
			"nodes":[
				0
			]
		}
	],
	"nodes":[
		{
			"mesh":0,
			"name":"Mug",
			"scale":[
				0.46179652214050293,
				0.46179652214050293,
				0.46179652214050293
			],
			"translation":[
				0,
				0.5098385810852051,
				0
			]
		}
	],
	"materials":[
		{
			"doubleSided":true,
			"extensions":{
				"KHR_materials_clearcoat":{
					"clearcoatRoughnessFactor":0
				}
			},
			"name":"Material.001",
			"pbrMetallicRoughness":{
				"baseColorTexture":{
					"index":0
				},
				"metallicFactor":0,
				"roughnessFactor":0.5
			}
		}
	],
	"meshes":[
		{
			"name":"Cylinder",
			"primitives":[
				{
					"attributes":{
						"POSITION":0,
						"NORMAL":1,
						"TEXCOORD_0":2
					},
					"indices":3,
					"material":0
				}
			]
		}
	],
	"textures":[
		{
			"sampler":0,
			"source":0
		}
	],
	"images":[
		{
			"mimeType":"image/png",
			"name":"lovehell",
			"uri":"lovehell.png"
		}
	],
	"accessors":[
		{
			"bufferView":0,
			"componentType":5126,
			"count":1494,
			"max":[
				1,
				1,
				1
			],
			"min":[
				-1,
				-1,
				-1.854975700378418
			],
			"type":"VEC3"
		},
		{
			"bufferView":1,
			"componentType":5126,
			"count":1494,
			"type":"VEC3"
		},
		{
			"bufferView":2,
			"componentType":5126,
			"count":1494,
			"type":"VEC2"
		},
		{
			"bufferView":3,
			"componentType":5123,
			"count":2412,
			"type":"SCALAR"
		}
	],
	"bufferViews":[
		{
			"buffer":0,
			"byteLength":17928,
			"byteOffset":0,
			"target":34962
		},
		{
			"buffer":0,
			"byteLength":17928,
			"byteOffset":17928,
			"target":34962
		},
		{
			"buffer":0,
			"byteLength":11952,
			"byteOffset":35856,
			"target":34962
		},
		{
			"buffer":0,
			"byteLength":4824,
			"byteOffset":47808,
			"target":34963
		}
	],
	"samplers":[
		{
			"magFilter":9729,
			"minFilter":9987
		}
	],
	"buffers":[
		{
			"byteLength":52632,
			"uri":"MUG.bin"
		}
	]
}
